<?xml version="1.0" encoding="UTF-8"?><svg id="Capa_1" xmlns="http://www.w3.org/2000/svg" viewBox="0 0 2710 2065"><defs><style>.cls-1{fill:#008bd9;}</style></defs><path class="cls-1" d="M2595.7,994.86c-6.1-77.47-65.49-126.4-85.28-157.41-75.72-118.62-170.32-222.5-281.71-312.65-194.13-157.06-415.77-253.76-663.09-291.4-121.78-18.55-243.35-16.04-364.4,2.75-123.68,19.16-243.68,53.72-358.12,104.64-291.03,129.56-509.07,337.02-657.14,619.06-16.57,31.6-16.08,56.47.24,87.59,95.69,182.3,229.98,331.55,390.94,457.17,107.6,84.02,226.05,149.73,354.96,197.01,73.29,26.86,146.94,50.84,223.87,64.17,37.64,6.52,75.19,13.17,112.78,19.77,6.16,4.17,13.09,2.11,19.61,2.15,42.98.2,86.01.32,128.99-.04,11.18-.12,22.73,2.63,33.62-2.23,1.78-.93,3.48-2.59,5.31-2.75,68.14-5.75,135.07-19.12,201.95-32.73,75.03-17.83,147.26-44.52,219.98-69.64,16.41-7.45,32.81-14.91,49.18-22.36,131.99-60,251.58-138.06,358.49-236.71,238.01-219.61,302.08-316.51,309.43-392.64,1.65-17.12.58-31.55.41-33.75ZM2326.36,1203.92c-48.24,56.23-91.05,106.11-163.21,166.04-220.16,182.82-458.22,247.04-490.92,255.51-216.24,56-400.22,40.54-507.93,23.01-2.51-.58-5.01-1.16-7.52-1.75-127.71-29.99-249.54-74.94-363.57-141.06-200.98-116.55-359.54-274.1-472.32-477.87-12.07-21.84-12.32-36.14-.16-57.36,137.5-240.4,332.32-415.12,588.59-521.95,134.66-56.11,273.78-93.3,419.09-102.29,158-9.72,311.53,16.53,459.73,72.03,217.51,81.47,401.96,210.01,548.24,391.22,73.56,91.12,114.78,134.02,116.43,184.17,1.95,59.41-40.82,110.52-126.45,210.32Z"/><path class="cls-1" d="M1954.08,879.57c-.81-1.05-2.07-1.94-2.39-3.12-34.52-125.18-102.29-228.81-202.84-310.6-107.27-87.26-231.73-128.58-368.98-127.61-69.23.49-137.09,15.11-202.68,39.38-263.89,97.67-415.16,355-375.22,630.52,24.27,167.35,114.04,296.02,251.74,392.6,45.78,32.13,98.24,49.22,149,70.33,77.82,24.43,157.18,28.56,238.17,21.84,65.51-5.47,127.21-23.25,187.85-46.67,2.84-1.7,5.51-3.65,8.47-5.02,92.97-43.31,168.04-107.68,228.28-190.53,38.81-53.39,63.44-113.19,84.63-174.89,15.27-60.2,18.76-121.58,18.64-183.36-.04-38.28-8.43-75.43-14.67-112.87ZM1820.23,1145.85c-36.99,125.71-113.88,216.86-233.59,271.75-78.23,35.89-160.75,52.5-245.34,43.39-210.46-22.73-368.7-153.86-407.18-365.62-.36-1.94.16-4.05.24-6.04v-.04c-12.72-84.99-6-167.72,28.72-247.2,55.26-127.81,151.51-209.93,283.26-251.05,150.38-46.91,289.5-20.38,415.24,71.87,79.24,58.17,131.38,137.09,158.68,231.93,11.55,41.28,17.1,82.56,17.1,123.84s-5.87,84.79-17.14,127.17Z"/><path class="cls-1" d="M1820.23,1145.84c-.35-.93-.61-1.85-.88-2.77.13.92.39,1.84.88,2.77Z"/><path class="cls-1" d="M1382.15,701.21c-170.29,1.97-320.14,146.12-317.93,316.59,2.57,197.23,153.89,317.29,319.75,316.5,170.23-.81,320.91-122.9,323.5-312.96-3.5-183.66-147.68-322.19-325.32-320.13ZM1422.44,1207c-84.75,22.25-176.46-28.03-217.74-116.73-44.12-94.79,11.92-248.25,142-266.67,37.93-5.37,75.28-2.64,110.63,14.01,3.04,1.43,6.17,2.81,8.86,4.75,1.42,1.03,1.99,3.24,3.58,6.04-22.31,7.08-42.59,16.92-58.59,33.71-27.17,28.5-32.15,61.91-14.03,92.48,21.37,36.06,61.19,53.13,100.04,43.58,24.38-5.99,44.51-18.36,61.15-36.98,2.89-3.24,5.34-9.74,10.59-7.48,4.01,1.73,4.62,7.53,5.1,12.49,9.72,99.88-48.23,193.65-151.59,220.79Z"/></svg>